PathFileType	4	(x/y/z)	S01_M20_T10.trc
DataRate	CameraRate	NumFrames	NumMarkers	Units	OrigDataRate	OrigDataStartFrame	OrigNumFrames
240	240	7	51	mm	240	1	419
Frame#	Time	Sternum			R.Acromium			L.Acromium			Top.Head			R.ASIS			L.ASIS			R.PSIS			L.PSIS			R.Great.Tro			L.Great.Tro			R.Iliac.Crest			L.Iliac.Crest			V.Sacral			R.Thigh.Upper.Post			R.Thigh.Lower.Ant			R.Thigh.Lower.Post			R.Thigh.Upper.Ant			R.Knee.Lat			R.Knee.Med			R.Shank.Upper.Post			R.Shank.Lower.Ant			R.Shank.Lower.Post			R.Shank.Upper.Ant			R.Ankle.Lat			R.Ankle.Med			R.Heel.Upper			R.Heel.Med			R.Heel.Lat			R.Toe.Lat			R.Toe.Med			R.Toe.Tip			L.Thigh.Upper.Post			L.Thigh.Lower.Ant			L.Thigh.Lower.Post			L.Thigh.Upper.Ant			L.Knee.Lat			L.Knee.Med			L.Shank.Upper.Post			L.Shank.Lower.Ant			L.Shank.Lower.Post			L.Shank.Upper.Ant			L.Ankle.Lat			L.Ankle.Med			L.Heel.Upper			L.Heel.Med			L.Heel.Lat			L.Toe.Lat			L.Toe.Med			L.Toe.Tip			Cervical.Spine			Back			
		X1	Y1	Z1	X2	Y2	Z2	X3	Y3	Z3	X4	Y4	Z4	X5	Y5	Z5	X6	Y6	Z6	X7	Y7	Z7	X8	Y8	Z8	X9	Y9	Z9	X10	Y10	Z10	X11	Y11	Z11	X12	Y12	Z12	X13	Y13	Z13	X14	Y14	Z14	X15	Y15	Z15	X16	Y16	Z16	X17	Y17	Z17	X18	Y18	Z18	X19	Y19	Z19	X20	Y20	Z20	X21	Y21	Z21	X22	Y22	Z22	X23	Y23	Z23	X24	Y24	Z24	X25	Y25	Z25	X26	Y26	Z26	X27	Y27	Z27	X28	Y28	Z28	X29	Y29	Z29	X30	Y30	Z30	X31	Y31	Z31	X32	Y32	Z32	X33	Y33	Z33	X34	Y34	Z34	X35	Y35	Z35	X36	Y36	Z36	X37	Y37	Z37	X38	Y38	Z38	X39	Y39	Z39	X40	Y40	Z40	X41	Y41	Z41	X42	Y42	Z42	X43	Y43	Z43	X44	Y44	Z44	X45	Y45	Z45	X46	Y46	Z46	X47	Y47	Z47	X48	Y48	Z48	X49	Y49	Z49	X50	Y50	Z50	X51	Y51	Z51	

1	0	NaN	NaN	NaN	-1332.7	1544.5	392.59	-1344	1540.2	67.336	-1305	1855.6	202.18	NaN	NaN	NaN	NaN	NaN	NaN	-1505.7	1071.3	295.68	-1498	1069.4	192.6	-1368.1	974.6	487.17	-1343.9	982.57	59.624	-1367.2	1134.8	462.32	-1349.5	1104.7	60.978	-1515.3	1034.4	240.38	-1321.8	669.54	484.33	-1237.3	605.75	483.98	-1303.7	580.94	475.71	-1252.7	695.38	490.11	-1293.2	526.88	481.95	-1248.5	514.5	333.8	-1428.3	460.16	481.05	NaN	NaN	NaN	-1486.9	420.82	465.72	-1398.8	402.9	465.66	-1645.3	300.32	418.71	NaN	NaN	NaN	-1692.7	337.81	347.97	-1703.6	309.79	316.99	-1721.4	317.06	378.35	-1651.9	148.12	457.27	-1610.5	118.83	342.55	NaN	NaN	NaN	-1319.8	692.86	90.108	-1221.2	641.36	93.426	-1291.5	607.97	110.41	-1258.3	727.22	71.491	-1224.2	535.21	106.98	-1205.7	546.18	246.38	-1271.5	394.71	91.006	-1204.9	308.42	117.53	-1265.7	315.75	93.99	-1207.2	384.49	107.88	-1275.7	103.08	132.51	-1248.9	118.1	231.15	-1345.1	73.263	181.98	-1333.3	50.084	215.64	-1337.7	47.558	153.62	-1126.7	40.89	118.4	-1100.3	53.147	239.23	-1037.5	62.746	186.72	-1434.2	1597.7	232.13	-1518.5	1288.5	264.41
2	0.0041667	NaN	NaN	NaN	-1328.4	1545.5	392.24	-1339.4	1541.3	66.996	-1300.2	1856.6	202.03	NaN	NaN	NaN	NaN	NaN	NaN	-1501.5	1072.3	295.63	-1493.9	1070.4	192.52	-1363	975.94	487	-1340	983.3	59.434	-1362.9	1136.2	461.93	-1345.2	1105.8	60.711	-1511.1	1035.5	240.33	-1314.4	671.17	484.5	-1229.6	608.25	483.8	-1295.5	582.85	475.76	-1245.8	697.73	490.06	-1283.3	528.45	481.75	-1239.7	516.94	333.6	-1418.8	460.67	480.88	-1437.9	357.97	443.25	-1476.8	420.73	465.52	-1388.6	403.9	465.33	-1633.6	298.38	418.35	NaN	NaN	NaN	-1682.5	335.47	347.94	-1692.9	307.27	316.95	-1710.3	314.23	378.34	-1638.3	146.61	456.84	-1596.4	118.06	341.83	NaN	NaN	NaN	-1317.7	693.56	89.839	-1219.5	641.49	93.09	-1289.9	608.5	110.11	-1256.1	727.55	71.217	-1223.2	535.31	106.63	-1204.4	546.11	246	-1270.9	394.77	90.742	-1204.6	308.28	117.17	-1265.5	315.88	93.917	-1206.8	384.44	107.54	-1275.7	103.18	132.43	-1248.8	118.19	231.02	-1345.1	73.328	181.94	-1333.3	50.162	215.61	-1337.7	47.626	153.6	-1126.7	40.824	118.35	-1100.3	53.157	239.19	-1037.5	62.669	186.66	-1429.7	1598.7	231.65	-1514.2	1289.6	263.79
3	0.0083333	NaN	NaN	NaN	-1323.9	1546.6	391.89	-1334.7	1542.4	66.648	-1295.3	1857.6	201.87	NaN	NaN	NaN	NaN	NaN	NaN	-1497.1	1073.4	295.58	-1489.5	1071.5	192.44	-1357.6	977.32	486.81	-1336	984.06	59.24	-1358.4	1137.7	461.52	-1340.7	1106.8	60.432	-1506.7	1036.5	240.28	-1306.7	672.87	484.69	-1221.6	610.85	483.6	-1287.1	584.83	475.81	-1238.6	700.17	489.99	-1273.2	530.11	481.54	-1230.5	519.49	333.4	-1408.8	461.19	480.7	-1427.5	358.44	442.88	-1466.4	420.61	465.31	-1377.9	404.92	464.99	-1621.4	296.32	417.97	NaN	NaN	NaN	-1671.8	332.96	347.9	-1681.8	304.55	316.89	-1698.8	311.2	378.33	-1624.1	144.98	456.4	-1581.6	117.23	341.1	NaN	NaN	NaN	-1315.6	694.29	89.559	-1217.7	641.62	92.743	-1288.3	609.06	109.78	-1253.8	727.89	70.93	-1222.1	535.41	106.26	-1203	546.03	245.6	-1270.3	394.83	90.467	-1204.2	308.14	116.81	-1265.2	316.01	93.832	-1206.2	384.39	107.19	-1275.6	103.28	132.35	-1248.7	118.29	230.88	-1345	73.396	181.91	-1333.3	50.245	215.58	-1337.7	47.695	153.57	-1126.6	40.755	118.29	-1100.3	53.167	239.14	-1037.5	62.588	186.6	-1424.9	1599.7	231.16	-1509.6	1290.7	263.15
4	0.0125	NaN	NaN	NaN	-1319.3	1547.6	391.54	-1329.7	1543.5	66.297	-1290.1	1858.6	201.73	NaN	NaN	NaN	NaN	NaN	NaN	-1492.5	1074.5	295.54	-1485.1	1072.6	192.36	-1352	978.72	486.61	-1331.8	984.83	59.041	-1353.7	1139.1	461.11	-1336.1	1107.9	60.141	-1502.2	1037.6	240.24	-1298.8	674.62	484.88	-1213.4	613.54	483.38	-1278.4	586.89	475.86	-1231.2	702.7	489.92	-1262.7	531.87	481.32	-1221.1	522.13	333.18	-1398.6	461.69	480.51	-1416.7	358.9	442.49	-1455.6	420.45	465.1	-1366.9	405.96	464.65	-1608.7	294.14	417.58	NaN	NaN	NaN	-1660.6	330.26	347.84	-1670.1	301.66	316.8	-1686.8	307.96	378.3	-1609.3	143.23	455.95	-1566.3	116.34	340.36	NaN	NaN	NaN	-1313.4	695.04	89.271	-1215.8	641.76	92.388	-1286.7	609.63	109.45	-1251.4	728.25	70.632	-1221.1	535.51	105.88	-1201.6	545.95	245.2	-1269.7	394.88	90.183	-1203.8	308.02	116.43	-1264.9	316.13	93.735	-1205.7	384.33	106.83	-1275.6	103.38	132.26	-1248.6	118.38	230.74	-1344.9	73.466	181.87	-1333.3	50.332	215.54	-1337.7	47.764	153.54	-1126.6	40.683	118.24	-1100.3	53.176	239.1	-1037.4	62.505	186.53	-1420	1600.7	230.66	-1504.9	1291.9	262.5
5	0.016667	NaN	NaN	NaN	-1314.6	1548.7	391.19	-1324.7	1544.6	65.946	-1284.9	1859.6	201.59	NaN	NaN	NaN	NaN	NaN	NaN	-1487.8	1075.6	295.51	-1480.5	1073.7	192.3	-1346.2	980.13	486.4	-1327.6	985.61	58.841	-1349	1140.5	460.7	-1331.4	1108.9	59.841	-1497.5	1038.7	240.22	-1290.7	676.41	485.08	-1204.9	616.3	483.13	-1269.5	589	475.91	-1223.5	705.28	489.84	-1252.2	533.72	481.08	-1211.5	524.86	332.96	-1388.2	462.17	480.32	-1405.4	359.35	442.08	-1444.5	420.24	464.87	-1355.6	407	464.32	-1595.7	291.84	417.18	NaN	NaN	NaN	-1649.1	327.37	347.77	-1658.1	298.57	316.68	-1674.4	304.52	378.27	-1593.9	141.36	455.51	-1550.5	115.39	339.63	NaN	NaN	NaN	-1311.1	695.8	88.977	-1213.9	641.89	92.026	-1285	610.22	109.1	-1249	728.62	70.324	-1220	535.62	105.48	-1200.2	545.86	244.8	-1269	394.94	89.893	-1203.4	307.9	116.06	-1264.5	316.26	93.625	-1205.2	384.28	106.46	-1275.6	103.48	132.18	-1248.5	118.48	230.59	-1344.9	73.538	181.82	-1333.2	50.422	215.51	-1337.7	47.833	153.51	-1126.5	40.608	118.18	-1100.2	53.184	239.05	-1037.4	62.419	186.46	-1414.8	1601.8	230.16	-1500	1293	261.85
6	0.020833	NaN	NaN	NaN	-1309.9	1549.7	390.84	-1319.5	1545.8	65.599	-1279.5	1860.6	201.46	NaN	NaN	NaN	NaN	NaN	NaN	-1483	1076.7	295.49	-1475.8	1074.8	192.25	-1340.3	981.54	486.19	-1323.3	986.38	58.639	-1344.1	1142	460.3	-1326.6	1110	59.531	-1492.8	1039.8	240.21	-1282.4	678.23	485.28	-1196.2	619.12	482.87	-1260.4	591.15	475.96	-1215.8	707.9	489.76	-1241.6	535.65	480.83	-1201.9	527.64	332.72	-1377.5	462.63	480.11	-1393.9	359.78	441.65	-1433.3	419.98	464.63	-1344.2	408.03	463.98	-1582.5	289.43	416.78	NaN	NaN	NaN	-1637.3	324.31	347.68	-1645.8	295.29	316.53	-1661.7	300.88	378.22	-1578	139.38	455.06	-1534.2	114.38	338.91	NaN	NaN	NaN	-1308.8	696.58	88.678	-1212	642.03	91.661	-1283.3	610.82	108.75	-1246.6	729.01	70.007	-1218.9	535.72	105.08	-1198.8	545.77	244.39	-1268.4	395.01	89.597	-1203	307.79	115.69	-1264.2	316.38	93.502	-1204.7	384.22	106.09	-1275.6	103.57	132.09	-1248.4	118.58	230.43	-1344.8	73.611	181.78	-1333.2	50.515	215.48	-1337.7	47.901	153.48	-1126.5	40.532	118.12	-1100.2	53.191	239	-1037.4	62.332	186.39	-1409.6	1602.8	229.66	-1495.1	1294.2	261.2
7	0.025	NaN	NaN	NaN	-1305.1	1550.8	390.51	-1314.3	1546.9	65.257	-1274.1	1861.6	201.35	NaN	NaN	NaN	NaN	NaN	NaN	-1478.2	1077.8	295.49	-1471.1	1075.9	192.22	-1334.2	982.95	485.97	-1318.9	987.15	58.438	-1339.2	1143.4	459.9	-1321.8	1111	59.215	-1488	1040.9	240.22	-1274.1	680.08	485.49	-1187.5	621.97	482.59	-1251.2	593.33	476	-1207.9	710.56	489.66	-1230.9	537.66	480.57	-1192.1	530.47	332.48	-1366.8	463.04	479.9	-1382	360.18	441.21	-1421.8	419.66	464.38	-1332.6	409.05	463.66	-1568.9	286.9	416.37	NaN	NaN	NaN	-1625.2	321.06	347.57	-1633.2	291.82	316.36	-1648.8	297.03	378.16	-1561.7	137.3	454.63	-1517.6	113.32	338.21	NaN	NaN	NaN	-1306.4	697.37	88.377	-1210	642.16	91.296	-1281.5	611.42	108.39	-1244.1	729.41	69.683	-1217.8	535.83	104.67	-1197.4	545.68	243.98	-1267.8	395.07	89.3	-1202.6	307.7	115.32	-1263.9	316.5	93.366	-1204.1	384.15	105.71	-1275.5	103.66	132.01	-1248.3	118.68	230.27	-1344.8	73.686	181.74	-1333.2	50.612	215.44	-1337.7	47.968	153.45	-1126.4	40.454	118.07	-1100.2	53.196	238.95	-1037.3	62.242	186.32	-1404.2	1603.9	229.17	-1490.1	1295.3	260.55
